<svg width="27" height="27" viewBox="0 0 27 27" fill="none" xmlns="http://www.w3.org/2000/svg">
<path d="M26.0421 24.2079L21.2501 19.4546C23.1102 17.1353 24.011 14.1914 23.7673 11.2283C23.5235 8.26526 22.1538 5.50818 19.9397 3.524C17.7256 1.53982 14.8354 0.479366 11.8634 0.56069C8.89144 0.642013 6.06358 1.85893 3.96128 3.96122C1.85899 6.06351 0.642075 8.89138 0.560751 11.8634C0.479427 14.8353 1.53988 17.7255 3.52406 19.9396C5.50824 22.1537 8.26532 23.5235 11.2284 23.7672C14.1915 24.0109 17.1353 23.1101 19.4546 21.25L24.208 26.0033C24.3281 26.1244 24.4709 26.2205 24.6283 26.2861C24.7857 26.3516 24.9545 26.3854 25.1251 26.3854C25.2956 26.3854 25.4644 26.3516 25.6218 26.2861C25.7792 26.2205 25.9221 26.1244 26.0421 26.0033C26.275 25.7625 26.4051 25.4406 26.4051 25.1056C26.4051 24.7706 26.275 24.4488 26.0421 24.2079ZM12.2084 21.25C10.4201 21.25 8.67201 20.7197 7.18511 19.7262C5.69822 18.7327 4.53932 17.3206 3.85498 15.6684C3.17064 14.0163 2.99158 12.1983 3.34046 10.4444C3.68933 8.69048 4.55047 7.07941 5.81497 5.81491C7.07947 4.55041 8.69054 3.68927 10.4445 3.3404C12.1984 2.99152 14.0163 3.17058 15.6685 3.85492C17.3206 4.53926 18.7328 5.69816 19.7263 7.18505C20.7198 8.67195 21.2501 10.4201 21.2501 12.2083C21.2501 14.6063 20.2975 16.9061 18.6018 18.6018C16.9062 20.2974 14.6064 21.25 12.2084 21.25Z" fill="#357016"/>
</svg>
