<svg width="38" height="43" viewBox="0 0 38 43" fill="none" xmlns="http://www.w3.org/2000/svg">
<path d="M9.35936 14.8193V13.0583C9.35936 7.22297 13.5497 2.49247 18.7187 2.49247C23.8877 2.49247 28.0781 7.22297 28.0781 13.0583V14.8193H31.1978C32.0594 14.8193 32.7577 15.6077 32.7577 16.5803V37.712C32.7577 38.6846 32.0594 39.473 31.1978 39.473H6.23958C5.37808 39.473 4.67969 38.6846 4.67969 37.712V16.5803C4.67969 15.6077 5.37808 14.8193 6.23958 14.8193H9.35936ZM29.6379 18.3413H7.79947V35.9511H29.6379V18.3413ZM17.1588 28.4359C16.2263 27.827 15.5989 26.6888 15.5989 25.3852C15.5989 23.44 16.9957 21.8632 18.7187 21.8632C20.4418 21.8632 21.8385 23.44 21.8385 25.3852C21.8385 26.6888 21.2111 27.827 20.2786 28.4359V32.4291H17.1588V28.4359ZM12.4791 14.8193H24.9583V13.0583C24.9583 9.16809 22.1647 6.01443 18.7187 6.01443C15.2727 6.01443 12.4791 9.16809 12.4791 13.0583V14.8193Z" fill="#1C1C1C"/>
</svg>
