<svg width="38" height="43" viewBox="0 0 38 43" fill="none" xmlns="http://www.w3.org/2000/svg">
<path d="M31.1978 38.7415H28.078V35.2196C28.078 32.3018 25.9829 29.9366 23.3984 29.9366H14.039C11.4545 29.9366 9.35934 32.3018 9.35934 35.2196V38.7415H6.23956V35.2196C6.23956 30.3568 9.7315 26.4147 14.039 26.4147H23.3984C27.7058 26.4147 31.1978 30.3568 31.1978 35.2196V38.7415ZM18.7187 22.8927C13.5497 22.8927 9.35934 18.1622 9.35934 12.3268C9.35934 6.49148 13.5497 1.76098 18.7187 1.76098C23.8877 1.76098 28.078 6.49148 28.078 12.3268C28.078 18.1622 23.8877 22.8927 18.7187 22.8927ZM18.7187 19.3708C22.1646 19.3708 24.9583 16.2171 24.9583 12.3268C24.9583 8.4366 22.1646 5.28294 18.7187 5.28294C15.2727 5.28294 12.4791 8.4366 12.4791 12.3268C12.4791 16.2171 15.2727 19.3708 18.7187 19.3708Z" fill="#1C1C1C"/>
</svg>
